<?xml version="1.0" encoding="UTF-8"?>
<!-- Generated by Pixelmator Pro 3.7.1 -->
<svg width="1920" height="300" viewBox="0 0 1920 300" xmlns="http://www.w3.org/2000/svg">
    <path id="STUDIO16" fill="#ffffff" fill-rule="evenodd" stroke="none" d="M 1908.15271 191.846466 C 1908.15271 205.468781 1904.802246 217.882523 1898.100952 229.087997 C 1891.399658 240.293457 1882.446289 249.246735 1871.240723 255.94809 C 1860.035278 262.649414 1847.621582 266 1833.999268 266 L 1751.606323 266 C 1737.984009 266 1725.570313 262.649414 1714.364746 255.94809 C 1703.159302 249.246735 1694.205933 240.293457 1687.504639 229.087997 C 1680.803345 217.882523 1677.452759 205.468781 1677.452759 191.846466 L 1677.452759 109.453598 C 1677.452759 95.831238 1680.803345 83.417465 1687.504639 72.21196 C 1694.205933 61.006516 1703.159302 52.053207 1714.364746 45.351898 C 1725.570313 38.650574 1737.984009 35.299988 1751.606323 35.299988 L 1891.674316 35.299988 L 1891.674316 68.257172 L 1751.606323 68.257172 C 1744.135986 68.257172 1737.27002 70.124695 1731.008179 73.859818 C 1724.746338 77.595016 1719.747803 82.538528 1716.012573 88.690582 C 1712.277466 94.842575 1710.409912 101.76355 1710.409912 109.453598 L 1710.409912 191.846466 C 1710.409912 199.316772 1712.277466 206.182755 1716.012573 212.444641 C 1719.747803 218.706512 1724.746338 223.704971 1731.008179 227.440125 C 1737.27002 231.175293 1744.135986 233.042847 1751.606323 233.042847 L 1833.999268 233.042847 C 1841.689209 233.042847 1848.610229 231.175293 1854.762207 227.440125 C 1860.914185 223.704971 1865.857788 218.706512 1869.593018 212.444641 C 1873.328003 206.182755 1875.195679 199.316772 1875.195679 191.846466 C 1875.195679 184.156403 1873.328003 177.235428 1869.593018 171.083435 C 1865.857788 164.931396 1860.914185 159.987869 1854.762207 156.252686 C 1848.610229 152.517563 1841.689209 150.650024 1833.999268 150.650024 L 1726.88855 150.650024 L 1726.88855 117.692841 L 1833.999268 117.692841 C 1847.621582 117.692841 1860.035278 121.043442 1871.240723 127.744751 C 1882.446289 134.446075 1891.399658 143.399384 1898.100952 154.604813 C 1904.802246 165.810318 1908.15271 178.224091 1908.15271 191.846466 Z M 1631.971802 266 L 1599.014771 266 L 1599.014771 68.257172 L 1566.057617 68.257172 L 1566.057617 35.299988 L 1631.971802 35.299988 Z M 1545.294556 150.650024 C 1545.294556 166.689194 1542.767944 181.684616 1537.714478 195.636505 C 1532.661011 209.588409 1525.465454 221.837372 1516.127563 232.383728 C 1506.789673 242.930054 1495.639282 251.169235 1482.676147 257.101563 C 1469.712769 263.033875 1455.321777 266 1439.502197 266 L 1362.712036 266 C 1346.672852 266 1332.171875 263.033875 1319.208618 257.101563 C 1306.245483 251.169235 1295.094971 242.930054 1285.757202 232.383728 C 1276.419312 221.837372 1269.223755 209.588409 1264.170288 195.636505 C 1259.116821 181.684616 1256.589966 166.689194 1256.589966 150.650024 C 1256.589966 134.830475 1259.116821 119.945038 1264.170288 105.993073 C 1269.223755 92.041107 1276.419312 79.737274 1285.757202 69.081039 C 1295.094971 58.424866 1306.245483 50.130753 1319.208618 44.198425 C 1332.171875 38.266113 1346.672852 35.299988 1362.712036 35.299988 L 1439.502197 35.299988 C 1455.321777 35.299988 1469.712769 38.266113 1482.676147 44.198425 C 1495.639282 50.130753 1506.789673 58.424866 1516.127563 69.081039 C 1525.465454 79.737274 1532.661011 92.041107 1537.714478 105.993073 C 1542.767944 119.945038 1545.294556 134.830475 1545.294556 150.650024 Z M 1512.337524 150.650024 C 1512.337524 135.48967 1509.42627 121.647766 1503.603882 109.123993 C 1497.781372 96.600235 1489.432373 86.658264 1478.556396 79.297806 C 1467.680542 71.937302 1454.662598 68.257172 1439.502197 68.257172 L 1362.712036 68.257172 C 1347.551636 68.257172 1334.533813 71.937302 1323.657837 79.297806 C 1312.781982 86.658264 1304.37793 96.600235 1298.445679 109.123993 C 1292.513428 121.647766 1289.547241 135.48967 1289.547241 150.650024 C 1289.547241 165.810394 1292.513428 179.59729 1298.445679 192.011261 C 1304.37793 204.425156 1312.781982 214.367096 1323.657837 221.837448 C 1334.533813 229.30777 1347.551636 233.042847 1362.712036 233.042847 L 1439.502197 233.042847 C 1454.662598 233.042847 1467.680542 229.30777 1478.556396 221.837448 C 1489.432373 214.367096 1497.781372 204.425156 1503.603882 192.011261 C 1509.42627 179.59729 1512.337524 165.810394 1512.337524 150.650024 Z M 1217.700684 266 L 1184.74353 266 L 1184.74353 35.299988 L 1217.700684 35.299988 Z M 1145.854004 150.650024 C 1145.854004 166.689194 1143.327393 181.684616 1138.273926 195.636505 C 1133.220459 209.588409 1126.024902 221.837372 1116.687012 232.383728 C 1107.349121 242.930054 1096.143799 251.169235 1083.070679 257.101563 C 1069.997681 263.033875 1055.551636 266 1039.732056 266 L 923.393311 266 L 923.393311 233.042847 L 1039.732056 233.042847 C 1054.892578 233.042847 1067.965332 229.30777 1078.951172 221.837448 C 1089.93689 214.367096 1098.34082 204.425156 1104.163208 192.011261 C 1109.985718 179.59729 1112.896973 165.810394 1112.896973 150.650024 C 1112.896973 135.48967 1109.985718 121.647766 1104.163208 109.123993 C 1098.34082 96.600235 1089.93689 86.658264 1078.951172 79.297806 C 1067.965332 71.937302 1054.892578 68.257172 1039.732056 68.257172 L 906.914795 68.257172 L 906.914795 266 L 873.957642 266 L 873.957642 35.299988 L 1039.732056 35.299988 C 1055.551636 35.299988 1069.997681 38.266113 1083.070679 44.198425 C 1096.143799 50.130753 1107.349121 58.424866 1116.687012 69.081039 C 1126.024902 79.737274 1133.220459 92.041107 1138.273926 105.993073 C 1143.327393 119.945038 1145.854004 134.830475 1145.854004 150.650024 Z M 829.795105 35.299988 L 829.465515 150.650024 C 829.465515 166.689194 826.49939 181.684616 820.567078 195.636505 C 814.634766 209.588409 806.395569 221.837372 795.849182 232.383728 C 785.302856 242.930054 773.053894 251.169235 759.10199 257.101563 C 745.150024 263.033875 730.264587 266 714.445068 266 L 690.056824 266 C 674.237305 266 659.351807 263.033875 645.399841 257.101563 C 631.447937 251.169235 619.198975 242.875122 608.652649 232.218918 C 598.106323 221.562714 589.867126 209.25885 583.934814 195.306915 C 578.002502 181.355011 575.036377 166.469513 575.036377 150.650024 L 575.036377 35.299988 L 607.99353 35.299988 L 607.99353 150.650024 C 607.99353 165.810394 611.673645 179.59729 619.03418 192.011261 C 626.394592 204.425156 636.336609 214.367096 648.860352 221.837448 C 661.384155 229.30777 675.11615 233.042847 690.056824 233.042847 L 714.445068 233.042847 C 729.605408 233.042847 743.392395 229.30777 755.806274 221.837448 C 768.220215 214.367096 778.107239 204.425156 785.467712 192.011261 C 792.828186 179.59729 796.508362 165.810394 796.508362 150.650024 L 796.508362 35.299988 Z M 438.264191 266 L 405.307098 266 L 405.307098 68.257172 L 288.638794 68.257172 L 288.638794 35.299988 L 554.932495 35.299988 L 554.932495 68.257172 L 438.264191 68.257172 Z M 277.762939 200.085693 C 277.762939 212.170074 274.796814 223.210571 268.864502 233.207642 C 262.93219 243.204697 255.022568 251.169235 245.135361 257.101563 C 235.248154 263.033875 224.15271 266 211.848648 266 L 11.469222 266 L 11.469222 233.042847 L 211.848648 233.042847 C 221.076691 233.042847 228.876465 229.802094 235.248215 223.320511 C 241.619965 216.838898 244.805801 209.094055 244.805801 200.085693 C 244.805801 191.077393 241.619965 183.33255 235.248215 176.850891 C 228.876465 170.369308 221.076691 167.128586 211.848648 167.128586 L 77.383507 167.128586 C 65.299149 167.128586 54.258629 164.16246 44.261574 158.230148 C 34.26453 152.297821 26.299969 144.333237 20.367649 134.336197 C 14.435331 124.339157 11.469222 113.29866 11.469222 101.214279 C 11.469222 89.129913 14.435331 78.089417 20.367649 68.092377 C 26.299969 58.095337 34.26453 50.130753 44.261574 44.198425 C 54.258629 38.266113 65.299149 35.299988 77.383507 35.299988 L 261.284363 35.299988 L 261.284363 68.257172 L 77.383507 68.257172 C 68.375175 68.257172 60.630329 71.497894 54.148712 77.979477 C 47.667114 84.461136 44.426365 92.205978 44.426365 101.214279 C 44.426365 110.222595 47.667114 117.967438 54.148712 124.449097 C 60.630329 130.930679 68.375175 134.171402 77.383507 134.171402 L 211.848648 134.171402 C 224.15271 134.171402 235.248154 137.137527 245.135361 143.069839 C 255.022568 149.002167 262.93219 156.966751 268.864502 166.963791 C 274.796814 176.960831 277.762939 188.001404 277.762939 200.085693 Z"/>
</svg>
